TITLE "Bartok Suite Op. 14"
PERFORMER "Peter Billam, Muscript, Timidity"
FILE "suite_op16.wav" WAVE
  TRACK 01 AUDIO
    TITLE "Allegretto"
    INDEX 01 00:00:00
  TRACK 02 AUDIO
    TITLE "Scherzo"
    INDEX 01 02:06:00
  TRACK 03 AUDIO
    TITLE "Allegro Molto"
    INDEX 01 04:07:00
  TRACK 04 AUDIO
    TITLE "Sostenuto"
    INDEX 01 06:18:00

